<svg width="2012" height="840" viewBox="0 0 2012 840" fill="none" xmlns="http://www.w3.org/2000/svg">
<g clip-path="url(#clip0_78_24)">
<path d="M898.6 345.55C882.27 345.55 867.478 343.657 854.225 339.87C841.208 335.847 829.612 330.167 819.435 322.83C809.258 315.257 800.147 306.382 792.1 296.205L828.665 254.67C840.498 270.527 852.332 281.177 864.165 286.62C876.235 292.063 888.66 294.785 901.44 294.785C907.83 294.785 913.628 293.957 918.835 292.3C924.042 290.643 928.065 288.277 930.905 285.2C933.745 281.887 935.165 277.863 935.165 273.13C935.165 269.58 934.218 266.385 932.325 263.545C930.668 260.705 928.302 258.22 925.225 256.09C922.148 253.96 918.48 252.067 914.22 250.41C909.96 248.517 905.463 246.978 900.73 245.795C895.997 244.375 891.145 243.192 886.175 242.245C872.448 239.168 860.497 235.382 850.32 230.885C840.143 226.388 831.623 220.945 824.76 214.555C818.133 207.928 813.163 200.473 809.85 192.19C806.537 183.67 804.88 174.203 804.88 163.79C804.88 152.667 807.365 142.49 812.335 133.26C817.542 123.793 824.405 115.747 832.925 109.12C841.682 102.257 851.74 97.05 863.1 93.5C874.46 89.7133 886.293 87.82 898.6 87.82C914.93 87.82 928.893 89.595 940.49 93.145C952.323 96.4583 962.382 101.31 970.665 107.7C979.185 114.09 986.403 121.782 992.32 130.775L955.045 166.63C950.075 160.477 944.632 155.388 938.715 151.365C933.035 147.342 926.882 144.265 920.255 142.135C913.865 140.005 907.238 138.94 900.375 138.94C893.275 138.94 887.122 139.887 881.915 141.78C876.945 143.437 873.04 145.922 870.2 149.235C867.36 152.312 865.94 156.098 865.94 160.595C865.94 164.618 867.123 168.05 869.49 170.89C871.857 173.73 875.052 176.333 879.075 178.7C883.098 180.83 887.713 182.723 892.92 184.38C898.127 185.8 903.57 186.983 909.25 187.93C922.267 190.533 933.982 193.965 944.395 198.225C955.045 202.485 964.157 207.692 971.73 213.845C979.54 219.998 985.457 227.335 989.48 235.855C993.74 244.138 995.87 253.842 995.87 264.965C995.87 282.242 991.61 296.915 983.09 308.985C974.807 320.818 963.328 329.93 948.655 336.32C934.218 342.473 917.533 345.55 898.6 345.55ZM1035.2 342V79.3H1090.94V191.835L1079.58 196.095C1082.18 187.575 1086.79 179.883 1093.42 173.02C1100.28 165.92 1108.45 160.24 1117.92 155.98C1127.38 151.72 1137.32 149.59 1147.74 149.59C1161.94 149.59 1173.89 152.548 1183.59 158.465C1193.29 164.145 1200.63 172.783 1205.6 184.38C1210.57 195.74 1213.06 209.703 1213.06 226.27V342H1155.9V230.885C1155.9 223.312 1154.84 217.04 1152.71 212.07C1150.58 207.1 1147.26 203.432 1142.77 201.065C1138.51 198.462 1133.18 197.278 1126.79 197.515C1121.82 197.515 1117.21 198.343 1112.95 200C1108.69 201.42 1105.02 203.668 1101.94 206.745C1098.86 209.585 1096.38 212.898 1094.49 216.685C1092.83 220.472 1092 224.613 1092 229.11V342H1063.96C1057.33 342 1051.65 342 1046.92 342C1042.18 342 1038.28 342 1035.2 342ZM1349.29 345.55C1329.65 345.55 1312.14 341.29 1296.75 332.77C1281.61 324.25 1269.54 312.653 1260.54 297.98C1251.79 283.307 1247.41 266.503 1247.41 247.57C1247.41 228.637 1251.79 211.833 1260.54 197.16C1269.54 182.487 1281.61 170.89 1296.75 162.37C1312.14 153.85 1329.65 149.59 1349.29 149.59C1368.94 149.59 1386.33 153.85 1401.48 162.37C1416.86 170.89 1428.93 182.487 1437.69 197.16C1446.44 211.833 1450.82 228.637 1450.82 247.57C1450.82 266.503 1446.44 283.307 1437.69 297.98C1428.93 312.653 1416.86 324.25 1401.48 332.77C1386.33 341.29 1368.94 345.55 1349.29 345.55ZM1349.29 296.56C1357.81 296.56 1365.39 294.43 1372.01 290.17C1378.64 285.91 1383.85 280.112 1387.63 272.775C1391.42 265.438 1393.19 257.037 1392.96 247.57C1393.19 238.103 1391.42 229.702 1387.63 222.365C1383.85 214.792 1378.64 208.875 1372.01 204.615C1365.39 200.355 1357.81 198.225 1349.29 198.225C1340.77 198.225 1333.08 200.355 1326.22 204.615C1319.59 208.875 1314.38 214.792 1310.6 222.365C1306.81 229.702 1305.04 238.103 1305.27 247.57C1305.04 257.037 1306.81 265.438 1310.6 272.775C1314.38 280.112 1319.59 285.91 1326.22 290.17C1333.08 294.43 1340.77 296.56 1349.29 296.56ZM1487.96 420.1V153.495H1541.92L1544.05 195.74L1533.4 192.545C1535.06 184.735 1539.08 177.635 1545.47 171.245C1551.86 164.855 1559.91 159.767 1569.61 155.98C1579.55 151.957 1589.97 149.945 1600.85 149.945C1616.95 149.945 1631.27 154.205 1643.81 162.725C1656.35 171.008 1666.17 182.487 1673.27 197.16C1680.61 211.597 1684.28 228.4 1684.28 247.57C1684.28 266.503 1680.61 283.307 1673.27 297.98C1666.17 312.653 1656.23 324.25 1643.45 332.77C1630.91 341.053 1616.47 345.195 1600.14 345.195C1589.49 345.195 1579.32 343.183 1569.61 339.16C1559.91 335.137 1551.75 329.693 1545.12 322.83C1538.49 315.967 1534.11 308.512 1531.98 300.465L1545.12 295.495V420.1H1487.96ZM1586.3 297.27C1594.82 297.27 1602.27 295.258 1608.66 291.235C1615.05 286.975 1620.02 281.177 1623.57 273.84C1627.12 266.503 1628.9 257.747 1628.9 247.57C1628.9 237.63 1627.12 228.992 1623.57 221.655C1620.02 214.082 1615.05 208.283 1608.66 204.26C1602.51 200 1595.06 197.87 1586.3 197.87C1577.54 197.87 1569.97 199.882 1563.58 203.905C1557.19 207.928 1552.22 213.727 1548.67 221.3C1545.12 228.873 1543.34 237.63 1543.34 247.57C1543.34 257.747 1545.12 266.503 1548.67 273.84C1552.22 281.177 1557.19 286.975 1563.58 291.235C1569.97 295.258 1577.54 297.27 1586.3 297.27ZM816.24 725V476.5H870.2L960.725 623.825L922.03 623.47L1013.62 476.5H1065.45V725H1006.88V647.61C1006.88 626.31 1007.35 607.14 1008.3 590.1C1009.48 573.06 1011.37 556.138 1013.98 539.335L1020.72 557.795L951.85 664.65H928.42L860.97 558.505L867.715 539.335C870.318 555.192 872.093 571.522 873.04 588.325C874.223 604.892 874.815 624.653 874.815 647.61V725H816.24ZM1125.07 725V536.495H1181.87V725H1125.07ZM1153.47 499.22C1142.82 499.22 1134.41 496.735 1128.26 491.765C1122.34 486.558 1119.39 479.222 1119.39 469.755C1119.39 461.235 1122.46 454.253 1128.62 448.81C1134.77 443.367 1143.05 440.645 1153.47 440.645C1164.12 440.645 1172.4 443.248 1178.32 448.455C1184.23 453.425 1187.19 460.525 1187.19 469.755C1187.19 478.512 1184.11 485.612 1177.96 491.055C1172.04 496.498 1163.88 499.22 1153.47 499.22ZM1235.23 725V536.495H1289.19L1290.97 574.835L1279.61 579.095C1282.21 570.575 1286.83 562.883 1293.45 556.02C1300.32 548.92 1308.48 543.24 1317.95 538.98C1327.42 534.72 1337.36 532.59 1347.77 532.59C1361.97 532.59 1373.92 535.548 1383.62 541.465C1393.33 547.145 1400.66 555.783 1405.63 567.38C1410.6 578.74 1413.09 592.703 1413.09 609.27V725H1355.93V613.885C1355.93 606.312 1354.87 600.04 1352.74 595.07C1350.61 590.1 1347.3 586.432 1342.8 584.065C1338.54 581.462 1333.21 580.278 1326.82 580.515C1321.85 580.515 1317.24 581.343 1312.98 583C1308.72 584.42 1305.05 586.668 1301.97 589.745C1298.9 592.585 1296.41 595.898 1294.52 599.685C1292.86 603.472 1292.03 607.613 1292.03 612.11V725H1263.99C1257.36 725 1251.68 725 1246.95 725C1242.22 725 1238.31 725 1235.23 725ZM1463.77 725V536.495H1520.57V725H1463.77ZM1492.17 499.22C1481.52 499.22 1473.12 496.735 1466.97 491.765C1461.05 486.558 1458.09 479.222 1458.09 469.755C1458.09 461.235 1461.17 454.253 1467.32 448.81C1473.47 443.367 1481.76 440.645 1492.17 440.645C1502.82 440.645 1511.1 443.248 1517.02 448.455C1522.94 453.425 1525.9 460.525 1525.9 469.755C1525.9 478.512 1522.82 485.612 1516.67 491.055C1510.75 496.498 1502.58 499.22 1492.17 499.22ZM1573.94 725V536.495H1627.9L1629.68 574.835L1618.32 579.095C1620.92 570.575 1625.53 562.883 1632.16 556.02C1639.02 548.92 1647.19 543.24 1656.66 538.98C1666.12 534.72 1676.06 532.59 1686.48 532.59C1700.68 532.59 1712.63 535.548 1722.33 541.465C1732.03 547.145 1739.37 555.783 1744.34 567.38C1749.31 578.74 1751.8 592.703 1751.8 609.27V725H1694.64V613.885C1694.64 606.312 1693.58 600.04 1691.45 595.07C1689.32 590.1 1686 586.432 1681.51 584.065C1677.25 581.462 1671.92 580.278 1665.53 580.515C1660.56 580.515 1655.95 581.343 1651.69 583C1647.43 584.42 1643.76 586.668 1640.68 589.745C1637.6 592.585 1635.12 595.898 1633.23 599.685C1631.57 603.472 1630.74 607.613 1630.74 612.11V725H1602.7C1596.07 725 1590.39 725 1585.66 725C1580.92 725 1577.02 725 1573.94 725ZM1885.55 806.65C1870.16 806.65 1854.78 804.402 1839.4 799.905C1824.25 795.408 1811.94 789.61 1802.48 782.51L1822.36 742.75C1827.33 746.063 1832.77 748.903 1838.69 751.27C1844.84 753.873 1851.23 755.885 1857.86 757.305C1864.48 758.725 1871.23 759.435 1878.09 759.435C1890.16 759.435 1899.98 757.66 1907.56 754.11C1915.13 750.56 1920.81 745.117 1924.6 737.78C1928.38 730.68 1930.28 721.687 1930.28 710.8V679.205L1941.28 680.98C1939.63 688.79 1935.48 695.89 1928.86 702.28C1922.47 708.67 1914.54 713.877 1905.07 717.9C1895.61 721.687 1885.55 723.58 1874.9 723.58C1857.86 723.58 1842.59 719.675 1829.1 711.865C1815.85 703.818 1805.32 692.813 1797.51 678.85C1789.93 664.65 1786.15 648.32 1786.15 629.86C1786.15 610.927 1789.93 594.242 1797.51 579.805C1805.08 565.132 1815.49 553.653 1828.75 545.37C1842 536.85 1856.91 532.59 1873.48 532.59C1880.58 532.59 1887.32 533.418 1893.71 535.075C1900.34 536.732 1906.37 538.98 1911.82 541.82C1917.5 544.423 1922.47 547.618 1926.73 551.405C1931.22 554.955 1934.77 558.86 1937.38 563.12C1940.22 567.38 1942.11 571.758 1943.06 576.255L1931.34 579.095L1933.47 536.495H1987.43V709.735C1987.43 725.118 1985.07 738.727 1980.33 750.56C1975.84 762.63 1969.09 772.807 1960.1 781.09C1951.34 789.61 1940.69 796 1928.15 800.26C1915.6 804.52 1901.4 806.65 1885.55 806.65ZM1886.97 679.56C1896.2 679.56 1904.13 677.548 1910.75 673.525C1917.62 669.265 1922.82 663.467 1926.37 656.13C1930.16 648.793 1932.05 640.155 1932.05 630.215C1932.05 620.275 1930.16 611.637 1926.37 604.3C1922.82 596.727 1917.62 590.928 1910.75 586.905C1904.13 582.645 1896.2 580.515 1886.97 580.515C1877.97 580.515 1870.16 582.645 1863.54 586.905C1856.91 590.928 1851.7 596.727 1847.92 604.3C1844.37 611.637 1842.59 620.275 1842.59 630.215C1842.59 640.155 1844.37 648.793 1847.92 656.13C1851.7 663.467 1856.91 669.265 1863.54 673.525C1870.16 677.548 1877.97 679.56 1886.97 679.56Z" fill="#53372F"/>
<path d="M524 180L526.221 179.989C544.083 179.9 561.945 179.834 579.808 179.793C588.446 179.772 597.084 179.744 605.722 179.698C613.254 179.658 620.786 179.633 628.318 179.624C632.304 179.619 636.289 179.606 640.274 179.577C644.032 179.55 647.789 179.542 651.547 179.548C653.57 179.546 655.594 179.525 657.617 179.502C666.479 179.542 673.183 181.045 680.75 185.688C687.911 193.048 690.985 200.722 691.638 210.969L691.773 212.972C691.916 215.137 692.049 217.303 692.182 219.469L692.183 219.5C692.284 221.044 692.385 222.587 692.487 224.13C692.701 227.396 692.911 230.662 693.116 233.928C693.549 240.782 693.999 247.635 694.45 254.488L694.601 256.792C694.765 259.294 694.928 261.796 695.091 264.298C695.873 276.268 696.731 288.23 697.687 300.188C698.64 312.174 699.489 324.162 700.235 336.163C700.667 343.029 701.13 349.89 701.648 356.75L701.824 359.074L702.004 361.454C703.437 380.428 704.663 399.41 705.811 418.403C708.308 459.733 711.217 501.027 714.384 542.311C715.482 556.653 716.469 570.993 717.252 585.357C717.777 594.738 718.437 604.102 719.177 613.469C719.513 617.726 719.843 621.984 720.173 626.241L720.381 628.921C721.128 638.605 721.835 648.293 722.535 657.981L722.726 660.62C723.108 665.92 723.49 671.221 723.871 676.522C724.192 680.994 724.515 685.467 724.838 689.94C725.214 695.16 725.591 700.381 725.965 705.601L726.322 710.582L726.497 713.014C726.816 717.466 727.14 721.918 727.468 726.37C727.611 728.322 727.754 730.275 727.897 732.227C728.064 734.52 728.234 736.814 728.405 739.107C730.619 769.533 730.619 769.533 725 780L723.715 782.524C716.021 796.454 704.28 806.348 689 811C683.628 812.152 678.383 812.142 672.923 812.132L672.701 812.132L669.547 812.138C666.073 812.143 662.599 812.142 659.125 812.141H659.036C656.505 812.143 653.975 812.146 651.444 812.15C645.207 812.157 638.971 812.159 632.734 812.16C625.264 812.161 617.795 812.167 610.325 812.174C592.272 812.19 574.219 812.196 556.167 812.201C547.627 812.203 539.088 812.207 530.548 812.211C501.318 812.224 472.088 812.234 442.858 812.238L437.354 812.238L431.837 812.239L420.767 812.24L417.995 812.241C388.325 812.244 358.655 812.26 328.985 812.284C297.618 812.308 266.25 812.322 234.883 812.323L224.555 812.324L221.986 812.324C208.34 812.325 194.694 812.336 181.049 812.351C167.336 812.365 153.623 812.368 139.91 812.36C131.762 812.356 123.615 812.36 115.467 812.375C109.385 812.386 103.302 812.381 97.2198 812.371C94.7582 812.369 92.2965 812.372 89.8349 812.38C86.4907 812.391 83.1469 812.384 79.8027 812.372L76.9024 812.395C63.4597 812.291 51.9176 807.084 42.2499 797.813C29.812 784.753 25.7719 772.833 25.7577 755.176L25.7544 753.072C25.766 735.237 27.2056 717.522 28.6647 699.758C29.2123 693.062 29.7392 686.364 30.266 679.666L30.2932 679.32C30.4254 677.64 30.5583 675.959 30.6916 674.279C31.8724 659.359 32.7706 644.433 33.5839 629.49C34.01 621.678 34.5387 613.878 35.1463 606.078C36.5748 587.664 37.8095 569.237 39.0443 550.809L39.215 548.26C40.9528 522.337 42.7278 496.417 44.5624 470.5L44.8782 466.038L45.0356 463.813L45.8124 452.836L45.9655 450.673C47.0158 435.825 48.0423 420.975 49.0624 406.125C50.381 386.937 51.7138 367.749 53.0624 348.563L53.3186 344.917C53.7295 339.07 54.1405 333.223 54.5517 327.376C55.323 316.408 55.323 316.408 56.0912 305.439C56.3208 302.156 56.5532 298.873 56.7875 295.59C57.4665 286.014 58.1033 276.437 58.6978 266.855C59.1085 260.241 59.5302 253.628 59.9576 247.015C60.225 242.866 60.4862 238.717 60.733 234.567C60.9672 230.63 61.217 226.694 61.4778 222.758C61.5717 221.297 61.6601 219.836 61.7423 218.374C62.3946 206.857 63.805 196.361 72.0702 187.723C78.6209 181.875 84.2653 179.872 93.03 179.88L96.697 179.876L100.694 179.887C102.104 179.887 103.514 179.887 104.923 179.886C108.743 179.886 112.563 179.892 116.383 179.899C119.994 179.904 123.605 179.905 127.216 179.906L128.366 179.907C135.927 179.91 143.489 179.918 151.05 179.928C159.659 179.939 168.268 179.945 176.878 179.95C194.585 179.96 212.293 179.978 230 180H524Z" fill="#F0856E"/>
<path d="M338 258C338.988 260.519 339.712 262.834 340.375 265.438C343.588 276.674 348.28 285.078 358 292C367.264 297.122 376.773 298.625 387.125 295.875C396.719 292.606 404.815 286.267 409.437 277.172C412.123 270.938 414.219 264.546 416 258C417.562 257.973 419.125 257.954 420.687 257.938C421.558 257.926 422.428 257.914 423.324 257.902C425.991 258 428.395 258.449 431 259C431.022 260.451 431.022 260.451 431.044 261.931C431.103 265.577 431.18 269.222 431.262 272.867C431.295 274.434 431.323 276.001 431.346 277.568C431.475 286.117 431.802 294.055 434.27 302.316C435.917 308.374 436.16 312.761 434.34 318.797C434.155 319.424 433.97 320.051 433.779 320.697C433.179 322.719 432.559 324.734 431.937 326.75C431.518 328.147 431.1 329.545 430.683 330.943C427.957 340.04 425.109 349.1 422.223 358.149C421.141 361.549 420.07 364.951 419.062 368.375C418.709 369.562 418.709 369.562 418.348 370.774C417.362 377.086 420.859 381.092 424.312 386C430.651 395.255 436.257 404.832 441.689 414.642C442.813 416.664 443.956 418.674 445.109 420.68C460.343 447.937 470.661 478.47 479.125 508.438C479.318 509.116 479.51 509.795 479.709 510.495C481.628 517.308 483.41 523.934 484 531C464.729 544.847 441.172 550.009 418 553C417.355 553.087 416.71 553.174 416.046 553.263C404.972 554.734 394.081 555.291 382.913 555.206C380.435 555.188 377.957 555.185 375.478 555.186C359.871 555.154 344.598 554.45 329.187 551.813C327.895 551.593 326.603 551.373 325.271 551.146C308.846 548.229 292.859 543.722 278 536C277.328 535.69 276.656 535.379 275.963 535.059C273.821 533.881 272.469 532.962 271 531C269.884 523.219 273.198 514.637 275.375 507.25C275.727 506.043 276.08 504.835 276.443 503.591C288.287 463.792 303.607 418.718 330.016 386.199C330.496 385.594 330.976 384.988 331.47 384.364C332.776 382.748 334.132 381.173 335.492 379.602C337.876 373.908 335.847 369.697 334 364C333.586 362.63 333.176 361.259 332.77 359.886C331.4 355.289 329.983 350.707 328.562 346.125C317.412 310.067 317.412 310.067 321.246 298.102C323.376 289.338 323.127 280.338 323.062 271.375C323.058 270.18 323.053 268.985 323.049 267.754C323.037 264.836 323.021 261.918 323 259C324.748 258.635 326.498 258.284 328.25 257.938C329.712 257.642 329.712 257.642 331.203 257.34C333.905 257.012 335.52 256.902 338 258Z" fill="#53372F"/>
<path d="M468.945 52.3908C471.345 54.5484 473.672 56.7655 476 59.0002C477.308 60.0884 478.621 61.1719 479.937 62.2502C506.531 85.6935 521.065 123.418 524 158C524.184 162.612 524.201 167.21 524.152 171.825C524.132 173.975 524.13 176.125 524.134 178.276C524.143 184.376 524.144 190.475 524.079 196.575C524.04 200.341 524.041 204.106 524.066 207.873C524.069 209.292 524.057 210.711 524.03 212.13C523.896 219.404 523.915 224.613 528.933 230.186C529.644 230.84 530.355 231.494 531.087 232.167C535.1 236.013 536.121 240.915 536.437 246.313C536.17 253.667 533.405 261.896 528 267C519.626 273.012 512.39 275.292 502 274C493.532 271.34 487.339 266.795 483 259C480.201 251.98 479.644 244.424 481.875 237.145C484.84 230.697 484.84 230.697 487.677 228.993C489.998 227.524 491.403 226.252 493 224C494.038 218.974 493.888 213.986 493.789 208.883C493.783 207.383 493.781 205.883 493.78 204.383C493.773 201.237 493.742 198.092 493.693 194.946C493.631 190.962 493.612 186.978 493.609 182.993C493.604 179.89 493.583 176.788 493.557 173.685C493.545 172.219 493.536 170.753 493.531 169.287C493.358 138.147 482.153 109.04 460.25 86.7502C449.241 75.9329 437.033 68.3047 423 62.0002C421.932 61.5168 420.865 61.0334 419.765 60.5353C397.669 51.3097 371.055 49.3745 348 56.0002C346.752 56.3173 345.504 56.6344 344.219 56.9611C314.91 64.8338 291.232 84.8828 275.812 110.59C272.057 117.113 269.124 123.819 266.687 130.938C266.457 131.604 266.226 132.27 265.989 132.956C261.818 145.947 260.547 158.901 260.488 172.438C260.471 173.939 260.453 175.441 260.434 176.943C260.387 180.836 260.357 184.728 260.33 188.621C260.3 192.617 260.254 196.613 260.209 200.61C260.123 208.406 260.056 216.203 260 224C260.94 224.448 260.94 224.448 261.9 224.905C264.187 226.098 265.406 227.289 267.062 229.25C267.548 229.812 268.034 230.374 268.535 230.953C273.665 238.121 273.697 244.436 273 253C271.81 259.602 267.939 264.589 263 269C255.346 273.873 247.989 274.882 239 274C230.121 271.379 224.811 265.535 220.062 257.875C217.714 251.422 217.871 243.513 219.949 237.047C221.754 233.244 223.365 230.556 226.561 227.758C229.499 224.436 229.617 223.059 229.596 218.695C229.602 217.438 229.609 216.181 229.616 214.885C229.608 214.216 229.6 213.547 229.591 212.858C229.566 210.729 229.571 208.601 229.583 206.472C229.604 201.918 229.585 197.366 229.562 192.813C229.359 143.359 237.603 100.719 273 64.0002C273.591 63.3569 274.183 62.7137 274.793 62.051C323.756 10.1861 414.69 8.35368 468.945 52.3908Z" fill="#53372F"/>
<path d="M486.765 607.268C499.908 617.597 508.351 632.504 511 649C512.694 668.481 509.711 685.936 497.816 701.937C486.898 714.845 472.547 722.078 456 725C441.919 726.079 429.059 725.505 416 720C415.085 719.639 414.169 719.278 413.226 718.906C398.049 712.203 387.722 699.231 381.254 684.32C374.908 667.517 375.302 648.039 382.656 631.492C391.697 614.725 405.255 602.814 423.312 596.5C444.546 591.095 468.862 594.409 486.765 607.268Z" fill="#53372F"/>
<path d="M539.345 596.725C540.464 596.716 541.583 596.706 542.736 596.697C543.954 596.697 545.171 596.698 546.426 596.699C547.679 596.695 548.933 596.691 550.225 596.686C552.889 596.681 555.553 596.679 558.217 596.684C560.928 596.689 563.638 596.682 566.349 596.664C570.27 596.639 574.191 596.635 578.113 596.637C579.308 596.628 580.504 596.618 581.735 596.609C594.971 596.68 608.22 598.927 618.32 608.109C627.839 618.296 630.698 629.176 630.308 642.895C629.666 654.309 625.039 663.961 617.004 671.996C601.449 685.267 581.174 684.317 562 684C562.01 685.11 562.021 686.221 562.032 687.365C562.068 691.476 562.091 695.587 562.11 699.698C562.12 701.479 562.133 703.26 562.151 705.041C562.175 707.598 562.186 710.154 562.195 712.711C562.205 713.51 562.216 714.309 562.226 715.132C562.227 717.09 562.122 719.047 562 721C559.315 723.685 557.935 723.258 554.187 723.266C553.03 723.268 551.872 723.271 550.679 723.274C549.465 723.266 548.251 723.258 547 723.25C545.785 723.258 544.571 723.266 543.32 723.274C541.584 723.27 541.584 723.27 539.812 723.266C538.213 723.262 538.213 723.262 536.582 723.259C534 723 534 723 532 721C531.748 718.854 531.748 718.854 531.746 716.141C531.74 715.115 531.735 714.089 531.729 713.031C531.733 711.901 531.737 710.77 531.741 709.606C531.737 708.419 531.734 707.232 531.73 706.009C531.723 702.748 531.725 699.488 531.731 696.228C531.736 692.82 531.731 689.412 531.728 686.005C531.725 680.281 531.73 674.558 531.739 668.835C531.75 662.213 531.746 655.591 531.735 648.968C531.726 643.289 531.725 637.609 531.73 631.929C531.733 628.534 531.734 625.139 531.727 621.744C531.722 617.961 531.73 614.178 531.741 610.395C531.737 609.264 531.733 608.134 531.729 606.969C531.734 605.943 531.74 604.916 531.746 603.859C531.747 602.963 531.747 602.068 531.748 601.146C532.301 596.429 535.361 596.744 539.345 596.725Z" fill="#53372F"/>
<path d="M246 597C255.24 597 264.48 597 274 597C274 613.17 274 629.34 274 646C291.16 646 308.32 646 326 646C325.96 630.248 325.96 630.248 325.91 614.496C325.907 612.53 325.904 610.564 325.902 608.598C325.897 607.566 325.892 606.535 325.887 605.473C325.887 604.011 325.887 604.011 325.886 602.52C325.884 601.669 325.882 600.819 325.88 599.943C326 598 326 598 327 597C328.987 596.9 330.979 596.869 332.969 596.867C334.179 596.866 335.39 596.865 336.637 596.863C337.912 596.867 339.186 596.871 340.5 596.875C342.412 596.869 342.412 596.869 344.363 596.863C346.179 596.865 346.179 596.865 348.031 596.867C349.151 596.868 350.27 596.869 351.424 596.871C354 597 354 597 355 598C355.098 599.605 355.126 601.213 355.127 602.821C355.131 604.386 355.131 604.386 355.135 605.983C355.132 607.714 355.132 607.714 355.129 609.48C355.132 611.292 355.132 611.292 355.135 613.141C355.138 616.463 355.137 619.785 355.134 623.108C355.132 626.577 355.134 630.047 355.136 633.516C355.137 639.344 355.135 645.171 355.13 650.999C355.125 657.746 355.127 664.492 355.132 671.239C355.137 677.021 355.137 682.804 355.135 688.586C355.133 692.045 355.133 695.503 355.136 698.961C355.14 702.814 355.135 706.667 355.129 710.52C355.131 711.674 355.133 712.828 355.135 714.017C355.133 715.061 355.13 716.104 355.127 717.179C355.126 718.547 355.126 718.547 355.126 719.943C355 722 355 722 354 723C352.012 723.1 350.021 723.131 348.031 723.133C346.821 723.134 345.61 723.135 344.363 723.137C343.088 723.133 341.813 723.129 340.5 723.125C339.225 723.129 337.95 723.133 336.637 723.137C335.426 723.135 334.216 723.134 332.969 723.133C331.849 723.132 330.73 723.131 329.576 723.129C327 723 327 723 326 722C325.907 720.404 325.882 718.804 325.886 717.205C325.887 716.17 325.887 715.134 325.887 714.068C325.892 712.971 325.897 711.875 325.902 710.746C325.903 709.745 325.904 708.743 325.905 707.711C325.911 703.953 325.925 700.195 325.937 696.438C325.958 688.043 325.979 679.649 326 671C309.17 671 292.34 671 275 671C275.079 687.365 275.079 687.365 275.18 703.73C275.186 705.776 275.191 707.821 275.195 709.867C275.211 711.471 275.211 711.471 275.226 713.108C275.226 714.123 275.227 715.137 275.227 716.183C275.231 717.067 275.236 717.951 275.24 718.861C275 721 275 721 273 723C270.402 723.243 270.402 723.243 267.152 723.23C265.99 723.229 264.828 723.227 263.631 723.225C262.412 723.212 261.193 723.2 259.937 723.188C258.103 723.187 258.103 723.187 256.232 723.186C247.14 723.14 247.14 723.14 246 722C245.904 720.38 245.878 718.757 245.88 717.134C245.878 716.081 245.877 715.028 245.875 713.943C245.879 712.778 245.883 711.612 245.886 710.412C245.886 709.193 245.886 707.973 245.886 706.717C245.887 703.364 245.892 700.011 245.899 696.657C245.905 693.157 245.905 689.656 245.907 686.155C245.91 679.522 245.918 672.889 245.928 666.255C245.939 658.705 245.945 651.155 245.95 643.605C245.96 628.07 245.978 612.535 246 597Z" fill="#52362F"/>
<path d="M174.625 594.562C175.766 594.569 176.906 594.575 178.082 594.581C189.759 594.796 202.082 596.321 212 603C213.93 607.786 212.107 612.076 210.625 616.75C210.39 617.53 210.156 618.31 209.914 619.113C208.162 624.838 208.162 624.838 207 626C202.593 625.606 198.708 624.644 194.558 623.133C187.948 620.755 181.851 619.513 174.812 619.5C174.106 619.494 173.4 619.488 172.672 619.482C168.311 619.588 165.486 620.372 162 623C159.434 626.422 159.636 629.846 160 634C162.016 639.292 166.219 641.429 171 644C176.561 646.461 182.244 648.613 187.914 650.807C200.51 655.784 212.287 661.326 218.273 674.105C222.054 683.962 220.665 694.605 216.539 704.09C211.269 714.054 202.826 719.373 192.5 723.375C172.938 728.891 149.867 725.791 132.125 716.269C130 715 130 715 129 714C129.242 706.604 130.956 699.291 135 693C138.359 691.459 139.908 691.969 143.418 693.144C144.679 693.691 145.935 694.247 147.188 694.812C159.196 699.891 171.443 702.31 184.16 698.047C186.557 696.683 187.615 695.385 189 693C189.895 688.707 190.158 684.149 188.027 680.195C181.37 673.627 170.001 670.813 161.391 667.691C149.718 663.433 138.681 657.903 132.688 646.504C128.966 637.601 128.598 628.44 131.562 619.25C135.725 609.305 142.277 602.674 152 598C159.52 595.03 166.594 594.489 174.625 594.562Z" fill="#53372F"/>
<path d="M466.645 626.777C474.193 632.854 480.381 642.267 482 652C483.054 665.092 481.469 677.855 472.727 688.324C463.663 697.121 453.403 700 441 700C430.479 699.053 422.249 694.606 415 687C406.833 676.822 405.929 664.829 406.741 652.237C407.794 643.136 413.049 634.109 420.067 628.285C433.653 618.621 452.567 617.316 466.645 626.777Z" fill="#F0856E"/>
<path d="M562 620C565.444 619.938 568.889 619.876 572.438 619.812C573.504 619.785 574.571 619.758 575.67 619.73C583.239 619.664 589.848 620.465 595.875 625.312C601.144 631.976 601.976 637.643 601 646C599.695 650.555 597.831 653.282 594.25 656.375C586.911 660.044 580.042 660.268 572 660.125C568.7 660.084 565.4 660.042 562 660C562 646.8 562 633.6 562 620Z" fill="#F0856E"/>
<path d="M408 604C408 604.99 408 605.98 408 607C406.674 607.872 405.342 608.735 403.988 609.562C399.517 612.795 395.831 617.05 392 621C391.002 622.002 390.003 623.003 389 624C390.074 617.48 395.756 612.745 400.754 608.859C403.141 607.189 405.543 605.566 408 604Z" fill="#4B322B"/>
<path d="M140 606C140.66 606.33 141.32 606.66 142 607C141.333 608.333 140.667 609.667 140 611C139.711 611.701 139.423 612.402 139.125 613.125C137.748 615.42 136.448 616.021 134 617C134.607 613.847 135.642 611.811 137.562 609.25C138.018 608.636 138.473 608.023 138.941 607.391C139.291 606.932 139.64 606.473 140 606Z" fill="#46302A"/>
<path d="M433 304C434.512 305.23 434.512 305.23 436 307C436.36 312.106 434.816 317.279 433 322C431.9 318.701 432.17 318.182 433 315C433.067 313.084 433.085 311.167 433.063 309.25C433.054 308.265 433.044 307.28 433.035 306.266C433.024 305.518 433.012 304.77 433 304Z" fill="#412D27"/>
<path d="M258 82C258.33 83.32 258.66 84.64 259 86C257.188 88.75 257.188 88.75 255 91C254.34 91 253.68 91 253 91C252.67 91.99 252.34 92.98 252 94C251.67 93.34 251.34 92.68 251 92C254.465 87.05 254.465 87.05 258 82Z" fill="#452620"/>
<path d="M478 679C478.33 679.66 478.66 680.32 479 681C477.299 684.233 475.24 687.121 473 690C472.34 689.67 471.68 689.34 471 689C474.465 684.05 474.465 684.05 478 679Z" fill="#402E28"/>
<path d="M408 604C408 604.99 408 605.98 408 607C405.188 609.062 405.188 609.062 402 611C401.01 611.66 400.02 612.32 399 613C400.517 608.45 404.169 606.499 408 604Z" fill="#3F2C26"/>
</g>
<defs>
<clipPath id="clip0_78_24">
<rect width="2012" height="840" fill="white"/>
</clipPath>
</defs>
</svg>
