<?xml version="1.0" encoding="UTF-8"?>
<svg version="1.1" xmlns="http://www.w3.org/2000/svg" width="1024" height="1024">
<path d="M0 0 C337.92 0 675.84 0 1024 0 C1024 337.92 1024 675.84 1024 1024 C686.08 1024 348.16 1024 0 1024 C0 686.08 0 348.16 0 0 Z " fill="#EDDDC9" transform="translate(0,0)"/>
<path d="M0 0 C2.39972905 2.15755456 4.72708875 4.37471123 7.0546875 6.609375 C8.3631278 7.69760813 9.67550647 8.78112715 10.9921875 9.859375 C37.22007831 32.97994542 52.79020522 71.28549644 55.0546875 105.609375 C55.14524816 109.45532621 55.13225809 113.29780363 55.10546875 117.14453125 C55.10180298 118.15519653 55.09813721 119.16586182 55.09436035 120.20715332 C55.08487858 122.67460273 55.07157701 125.14196708 55.0546875 127.609375 C55.78760702 127.60568783 56.52052654 127.60200066 57.27565575 127.59820175 C75.13785142 127.50973052 93.00000315 127.44360703 110.86237144 127.40212631 C119.50061301 127.38153156 128.138708 127.35347027 136.77685547 127.30761719 C144.30892369 127.26765458 151.84088571 127.24191976 159.37305701 127.23302102 C163.35856314 127.22782215 167.34376558 127.21566801 171.32917404 127.18645477 C175.08682914 127.1591363 178.84405784 127.15096279 182.60180283 127.15694427 C184.62527683 127.15533347 186.64870528 127.1338972 188.67205811 127.11169434 C197.53407698 127.15146079 204.23825701 128.65383811 211.8046875 133.296875 C218.96619172 140.65730989 222.03971689 148.3312876 222.69311523 158.578125 C222.73741574 159.23902791 222.78171625 159.89993082 222.8273592 160.58086109 C222.97148148 162.75663277 223.10486036 164.93292316 223.23828125 167.109375 C223.33865499 168.65277227 223.43976499 170.19612181 223.54156494 171.73942566 C223.75568616 175.00517532 223.96531759 178.27116788 224.17123413 181.53744507 C224.65198311 189.1595938 225.15513205 196.7802799 225.655756 204.40114403 C225.8198426 206.90299167 225.98300869 209.40489809 226.14604187 211.90681458 C226.92806166 223.87698852 227.78627484 235.83923584 228.7421875 247.796875 C229.69490827 259.78323401 230.54392291 271.77138625 231.2902832 283.77270508 C231.721497 290.63848508 232.18470998 297.49969853 232.703125 304.359375 C232.76102707 305.12629669 232.81892914 305.89321838 232.87858582 306.68338013 C232.93790787 307.46865082 232.99722992 308.25392151 233.05834961 309.06298828 C234.49156895 328.03680671 235.71808833 347.01970076 236.86548615 366.0127182 C239.36302726 407.34208331 242.27137918 448.63630947 245.43844604 489.91986084 C246.53675408 504.26275042 247.52403082 518.60212494 248.3069458 532.96574402 C248.83174063 542.34704384 249.49186194 551.71121912 250.23221016 561.07781029 C250.56827682 565.33507489 250.89808758 569.59282388 251.2277832 573.85058594 C251.29628322 574.73478808 251.36478323 575.61899023 251.435359 576.52998638 C252.18291634 586.2144685 252.89000205 595.90181236 253.58984375 605.58984375 C253.6527743 606.46074898 253.71570484 607.33165421 253.78054237 608.2289505 C254.16325963 613.52950982 254.54457576 618.83016922 254.92547607 624.13085938 C255.24710566 628.60356882 255.56990699 633.07619372 255.89257812 637.54882812 C256.26916929 642.76938338 256.64538734 647.98996434 257.01977539 653.2106781 C257.13883244 654.87083959 257.25789165 656.53100093 257.37695312 658.19116211 C257.43451279 658.99380965 257.49207245 659.7964572 257.55137634 660.62342739 C257.87113498 665.07563731 258.19443649 669.52756411 258.52240849 673.97917652 C258.66615649 675.93152554 258.8088538 677.88395184 258.95152283 679.83638 C259.11921635 682.1297204 259.28859833 684.42293841 259.46022034 686.71598816 C261.67351155 717.14190839 261.67351155 717.14190839 256.0546875 727.609375 C255.41853516 728.85847656 255.41853516 728.85847656 254.76953125 730.1328125 C247.07546652 744.06357036 235.33504666 753.95774357 220.0546875 758.609375 C214.60955302 759.77686858 209.29504013 759.75094555 203.7552681 759.74080276 C202.71467955 759.7428554 201.67409101 759.74490803 200.60196948 759.74702287 C197.09818025 759.75269913 193.59443024 759.75123484 190.09063721 759.74981689 C187.55995792 759.75240016 185.02927904 759.75541321 182.49860072 759.7588203 C176.26205359 759.76605028 170.0255188 759.76859314 163.78896797 759.76914935 C156.31925279 759.77006341 148.84954551 759.77673214 141.37983373 759.78349617 C123.32701181 759.79955342 105.27419073 759.80545891 87.22136295 759.81024492 C78.68187156 759.81258091 70.14238083 759.81618354 61.60288996 759.8199403 C32.37294209 759.83277487 3.1429946 759.84349469 -26.08695602 759.8469429 C-27.92169033 759.84716453 -29.75642464 759.84738632 -31.59115894 759.84760825 C-33.43032548 759.84782889 -35.26949202 759.84804938 -37.10865855 759.8482697 C-40.79835049 759.84871225 -44.48804243 759.84915937 -48.17773438 759.84960938 C-49.09256288 759.84971877 -50.00739139 759.84982816 -50.94994197 759.84994086 C-80.62006813 759.85357232 -110.29016987 759.86949618 -139.96028667 759.89279974 C-171.32759749 759.91739128 -202.69489435 759.9311154 -234.06221509 759.93231082 C-237.50494973 759.93248228 -240.94768437 759.9326977 -244.39041901 759.93294525 C-245.23812017 759.93300102 -246.08582133 759.93305679 -246.95921041 759.93311425 C-260.60500758 759.9342652 -274.25077971 759.94529089 -287.89656842 759.95983231 C-301.60959775 759.97419283 -315.32259494 759.97743678 -329.03562972 759.96939233 C-337.18310411 759.96493417 -345.3304748 759.96880416 -353.47793559 759.98463084 C-359.56046782 759.99552118 -365.64288134 759.99074585 -371.725418 759.97985896 C-374.18704369 759.97789429 -376.64867971 759.98101575 -379.11029086 759.98970333 C-382.45455037 760.00075988 -385.79828372 759.99333216 -389.14252853 759.9813118 C-390.09961141 759.98890699 -391.05669429 759.99650218 -392.04277968 760.00432754 C-405.48550385 759.89992356 -417.0276516 754.69277827 -426.6953125 745.421875 C-439.13319138 732.36210218 -443.17335178 720.44179143 -443.1875 702.78515625 C-443.18859646 702.09079279 -443.18969292 701.39642933 -443.1908226 700.68102455 C-443.1792603 682.84639068 -441.73964889 665.13111802 -440.28051758 647.36724854 C-439.72347677 640.55579101 -439.18794329 633.74258318 -438.65205574 626.92943382 C-438.51976163 625.24885332 -438.3869656 623.56831225 -438.2536602 621.88781166 C-437.07278107 606.96861069 -436.17460829 592.04247673 -435.36132812 577.09936523 C-434.93521011 569.28714115 -434.40647093 561.48759295 -433.79888916 553.68768311 C-432.3045343 534.42472946 -431.02227166 515.14690827 -429.73020935 495.86961746 C-427.99241648 469.94629665 -426.21740365 444.02603063 -424.3828125 418.109375 C-424.27753618 416.62186692 -424.17226071 415.13435878 -424.06698608 413.64685059 C-424.0150368 412.91286293 -423.96308752 412.17887527 -423.90956402 411.42264557 C-423.65059195 407.76353843 -423.3916779 404.10442719 -423.1328125 400.4453125 C-423.08230555 399.73156464 -423.03179859 399.01781677 -422.97976112 398.28244019 C-421.92940052 383.43432546 -420.90293979 368.58459685 -419.8828125 353.734375 C-418.56425435 334.54582326 -417.23144221 315.3583376 -415.8828125 296.171875 C-415.7982782 294.96887756 -415.7137439 293.76588013 -415.62664795 292.52642822 C-415.21575204 286.6792304 -414.80470105 280.8320435 -414.39355469 274.98486328 C-413.62224152 264.01683148 -413.62224152 264.01683148 -412.85400391 253.04858398 C-412.62445297 249.76535785 -412.39203037 246.48235221 -412.15771484 243.19946289 C-411.47872549 233.6235901 -410.8419541 224.04584741 -410.24736118 214.46439362 C-409.83673568 207.85056317 -409.41507703 201.23748329 -408.98765469 194.62471771 C-408.7202504 190.4756452 -408.45904394 186.32637503 -408.21218872 182.17602539 C-407.97798737 178.23880478 -407.72818926 174.30285995 -407.46746826 170.36730957 C-407.37347351 168.90624591 -407.28509748 167.44480768 -407.20291138 165.98303223 C-406.55060996 154.46670016 -405.1402701 143.9697706 -396.875 135.33203125 C-390.32427348 129.48411547 -384.67990116 127.48142541 -375.91520691 127.48912048 C-374.70510956 127.48774582 -373.49501221 127.48637115 -372.24824524 127.48495483 C-370.26947639 127.49034775 -370.26947639 127.49034775 -368.25073242 127.49584961 C-366.84114585 127.49613182 -365.43155914 127.49597308 -364.02197266 127.4954071 C-360.20212971 127.49512046 -356.38231823 127.50099577 -352.5624826 127.50798106 C-348.56796793 127.51423666 -344.57345252 127.51482015 -340.57893372 127.51600647 C-333.01778426 127.51911327 -325.45664929 127.5273179 -317.8955062 127.53735596 C-309.28612437 127.54853729 -300.67674185 127.55403264 -292.06735456 127.55905139 C-274.359999 127.56950105 -256.65265692 127.5870879 -238.9453125 127.609375 C-238.94860597 126.98009881 -238.95189943 126.35082262 -238.9552927 125.70247746 C-238.96845955 122.81931525 -238.97657718 119.93615939 -238.98461914 117.05297852 C-238.98988869 116.06315224 -238.99515823 115.07332596 -239.00058746 114.05350494 C-239.01586167 106.74551036 -238.59988084 99.76392907 -237.3828125 92.546875 C-237.20500244 91.4638208 -237.02719238 90.3807666 -236.84399414 89.26489258 C-231.55560583 59.24596535 -216.93066435 33.37800593 -195.9453125 11.609375 C-195.05779297 10.64451172 -195.05779297 10.64451172 -194.15234375 9.66015625 C-145.18903481 -42.20468211 -54.25488712 -44.03712323 0 0 Z " fill="#F0856E" transform="translate(603.9453125,113.390625)"/>
<path d="M0 0 C0.98806372 2.51865322 1.71231451 4.83367384 2.375 7.4375 C5.58754401 18.673933 10.28016279 27.0778133 20 34 C29.26405452 39.12195322 38.77286171 40.62478673 49.125 37.875 C58.71947244 34.60588498 66.81484953 28.26643733 71.4375 19.171875 C74.12294883 12.93779736 76.21867628 6.54600262 78 0 C79.56240032 -0.02730408 81.1249427 -0.04653226 82.6875 -0.0625 C83.55761719 -0.07410156 84.42773438 -0.08570313 85.32421875 -0.09765625 C87.99119418 -0.00032138 90.39471655 0.44840519 93 1 C93.02187378 2.45067871 93.02187378 2.45067871 93.04418945 3.93066406 C93.10289852 7.57651697 93.1801141 11.22179812 93.26245117 14.8671875 C93.29536379 16.43414922 93.32349616 18.00121993 93.34643555 19.56835938 C93.47488011 28.11675487 93.80225449 36.05465584 96.27026367 44.31542969 C97.91711626 50.3739078 98.16006847 54.76042852 96.33984375 60.796875 C96.15479782 61.42400391 95.96975189 62.05113281 95.77909851 62.69726562 C95.1787207 64.71917049 94.55853147 66.7343537 93.9375 68.75 C93.51824816 70.14712524 93.100123 71.54458905 92.68310547 72.94238281 C89.95657347 82.04008863 87.10902568 91.1003418 84.22265625 100.1484375 C83.14060726 103.54916288 82.06977506 106.95116818 81.0625 110.375 C80.70865234 111.56222656 80.70865234 111.56222656 80.34765625 112.7734375 C79.36199959 119.08607001 82.85936348 123.09192045 86.3125 128 C92.6515036 137.25506002 98.25746937 146.83199029 103.68945312 156.64160156 C104.8133788 158.66416528 105.95633439 160.67366655 107.109375 162.6796875 C122.34307466 189.93667903 132.66151268 220.46999172 141.125 250.4375 C141.31758392 251.11631226 141.51016785 251.79512451 141.70858765 252.49450684 C143.6281367 259.30797577 145.41041986 265.93397138 146 273 C126.72859007 286.84686491 103.17169211 292.00916541 80 295 C79.35515656 295.08680023 78.71031311 295.17360046 78.04592896 295.26303101 C66.97155265 296.73395608 56.08131148 297.29075914 44.91333008 297.20581055 C42.43495343 297.18748117 39.95695341 297.18530267 37.47851562 297.18554688 C21.87152833 297.15359403 6.59795874 296.44966067 -8.8125 293.8125 C-10.10494629 293.59255371 -11.39739258 293.37260742 -12.72900391 293.14599609 C-29.15442466 290.22887408 -45.14077705 285.72145929 -60 278 C-60.67208496 277.68949707 -61.34416992 277.37899414 -62.03662109 277.05908203 C-64.17921903 275.88052074 -65.53089028 274.96215337 -67 273 C-68.11622703 265.21916876 -64.8014747 256.63698374 -62.625 249.25 C-62.27268311 248.04263184 -61.92036621 246.83526367 -61.55737305 245.59130859 C-49.71255176 205.79168686 -34.39324885 160.71748137 -7.984375 128.19921875 C-7.50436035 127.59343994 -7.0243457 126.98766113 -6.52978516 126.36352539 C-5.22393926 124.74744464 -3.86765205 123.17248163 -2.5078125 121.6015625 C-0.12430534 115.90831483 -2.15343505 111.69696586 -4 106 C-4.41365619 104.62979522 -4.82363639 103.2584768 -5.23046875 101.88623047 C-6.60011092 97.28890592 -8.0166826 92.706721 -9.4375 88.125 C-20.58799093 52.06687024 -20.58799093 52.06687024 -16.75390625 40.1015625 C-14.62375984 31.33816224 -14.87255024 22.3380672 -14.9375 13.375 C-14.94201172 12.18003906 -14.94652344 10.98507812 -14.95117188 9.75390625 C-14.96284397 6.83588353 -14.97921674 3.91796963 -15 1 C-13.25215171 0.63536268 -11.50159498 0.2836922 -9.75 -0.0625 C-8.28820312 -0.35833984 -8.28820312 -0.35833984 -6.796875 -0.66015625 C-4.09496851 -0.98846053 -2.48046524 -1.09800895 0 0 Z " fill="#53372F" transform="translate(473,319)"/>
<path d="M0 0 C2.79807593 2.20222667 5.45303897 4.49371526 8.08984375 6.88671875 C8.86690674 7.59006348 8.86690674 7.59006348 9.65966797 8.30761719 C30.26822989 27.2095039 42.28023135 52.21690239 46.08984375 79.88671875 C46.08984375 88.13671875 46.08984375 96.38671875 46.08984375 104.88671875 C-30.80015625 104.88671875 -107.69015625 104.88671875 -186.91015625 104.88671875 C-186.91015625 65.51563985 -180.73529741 39.3854427 -153.91015625 10.88671875 C-153.32105469 10.2215625 -152.73195313 9.55640625 -152.125 8.87109375 C-113.04419695 -33.38770867 -44.32581188 -32.18827413 0 0 Z " fill="#EDDDCA" transform="translate(582.91015625,136.11328125)"/>
<path d="M0 0 C2.39972905 2.15755456 4.72708875 4.37471123 7.0546875 6.609375 C8.3631278 7.69760813 9.67550647 8.78112715 10.9921875 9.859375 C37.5862423 33.30272853 52.12018591 71.02735027 55.0546875 105.609375 C55.23891899 110.22133669 55.25626892 114.81904827 55.20682144 119.43409538 C55.18682265 121.58455358 55.18521472 123.73435983 55.18869019 125.88490295 C55.19823156 131.98486665 55.19850169 138.08415091 55.13378906 144.18383789 C55.09514676 147.95053131 55.09575017 151.71552046 55.12136459 155.48230171 C55.1237588 156.90115881 55.1119242 158.32012237 55.08478165 159.73872185 C54.95099616 167.01307894 54.96942241 172.22232599 59.98779297 177.79516602 C60.69870087 178.44896744 61.40960876 179.10276886 62.14205933 179.77638245 C66.15520683 183.62243553 67.17578811 188.52390971 67.4921875 193.921875 C67.22452374 201.27625533 64.45945589 209.50487152 59.0546875 214.609375 C50.68049044 220.62116699 43.44464512 222.9008479 33.0546875 221.609375 C24.58726516 218.9487632 18.39383019 214.40424211 14.0546875 206.609375 C11.25595365 199.5888223 10.69910653 192.03316825 12.9296875 184.75390625 C15.89526863 178.30571833 15.89526863 178.30571833 18.73176575 176.60212708 C21.05247597 175.13349319 22.45800209 173.86153103 24.0546875 171.609375 C25.09273438 166.58299448 24.94320551 161.59560886 24.84375 156.4921875 C24.83829614 154.99210322 24.83552596 153.49200702 24.83529663 151.99191284 C24.82757549 148.84590405 24.79667997 145.70129434 24.74755859 142.55566406 C24.68583279 138.57081959 24.66673378 134.58732962 24.66376686 130.60205269 C24.65900394 127.49935213 24.6380501 124.39692599 24.61188889 121.29433823 C24.60001554 119.82830885 24.59121075 118.36225062 24.5858345 116.89618301 C24.41287857 85.75662059 13.20776564 56.64947606 -8.6953125 34.359375 C-19.70372599 23.54210054 -31.91249551 15.91392103 -45.9453125 9.609375 C-47.01265625 9.12597656 -48.08 8.64257812 -49.1796875 8.14453125 C-71.27642794 -1.0811383 -97.89007043 -3.01631373 -120.9453125 3.609375 C-122.193125 3.92648438 -123.4409375 4.24359375 -124.7265625 4.5703125 C-154.0349265 12.44300896 -177.71268087 32.49201561 -193.1328125 58.19921875 C-196.88802888 64.72203573 -199.8213675 71.42851292 -202.2578125 78.546875 C-202.48823242 79.21299805 -202.71865234 79.87912109 -202.95605469 80.56542969 C-207.12722068 93.55668235 -208.39834172 106.51064299 -208.45703125 120.046875 C-208.47393892 121.54859827 -208.49209694 123.05030793 -208.51142883 124.55200195 C-208.55827604 128.44469943 -208.58850235 132.33734177 -208.61486816 136.23022461 C-208.64500947 140.22651069 -208.69142122 144.2226074 -208.73632812 148.21875 C-208.82161506 156.01552963 -208.88928538 163.81232424 -208.9453125 171.609375 C-208.00473999 172.05748535 -208.00473999 172.05748535 -207.04516602 172.51464844 C-204.75846509 173.70678505 -203.53896894 174.89848577 -201.8828125 176.859375 C-201.39683594 177.42140625 -200.91085937 177.9834375 -200.41015625 178.5625 C-195.28040192 185.73047672 -195.24798422 192.04500509 -195.9453125 200.609375 C-197.13496646 207.2114186 -201.00580712 212.19805436 -205.9453125 216.609375 C-213.59932257 221.48266214 -220.95637431 222.49084442 -229.9453125 221.609375 C-238.8245551 218.98846753 -244.1336507 213.14431339 -248.8828125 205.484375 C-251.23080453 199.03108872 -251.07449045 191.12237305 -248.99609375 184.65625 C-247.19132145 180.85313361 -245.57969608 178.16469823 -242.38368225 175.36698914 C-239.4464523 172.04520136 -239.32794153 170.6685016 -239.34936523 166.30395508 C-239.3426329 165.04686234 -239.33590057 163.78976959 -239.32896423 162.49458313 C-239.33713606 161.82557795 -239.34530788 161.15657276 -239.35372734 160.46729469 C-239.37940142 158.33783587 -239.37425965 156.21029182 -239.36183167 154.08073425 C-239.34110769 149.52757011 -239.36059035 144.97499934 -239.3828125 140.421875 C-239.58582017 90.96813898 -231.34255919 48.3278253 -195.9453125 11.609375 C-195.35363281 10.96613281 -194.76195312 10.32289062 -194.15234375 9.66015625 C-145.18903481 -42.20468211 -54.25488712 -44.03712323 0 0 Z " fill="#53372F" transform="translate(603.9453125,113.390625)"/>
<path d="M0 0 C13.1424863 10.32898091 21.58560449 25.23649821 24.234375 41.73193359 C25.92863364 61.21309979 22.94519264 78.66836497 11.05078125 94.66943359 C0.13296874 107.57719222 -14.21832358 114.8100066 -30.765625 117.73193359 C-44.84632117 118.81096647 -57.70621097 118.237073 -70.765625 112.73193359 C-71.68085937 112.37099609 -72.59609375 112.01005859 -73.5390625 111.63818359 C-88.7161213 104.9353816 -99.04333882 91.96300746 -105.51171875 77.05224609 C-111.85732627 60.24923554 -111.46359564 40.77111753 -104.109375 24.22412109 C-95.06865045 7.45673079 -81.5101232 -4.45365599 -63.453125 -10.76806641 C-42.21916577 -16.17263748 -17.90385323 -12.85849193 0 0 Z " fill="#53372F" transform="translate(621.765625,668.26806640625)"/>
<path d="M0 0 C1.11909256 -0.00953201 2.23818512 -0.01906403 3.39118958 -0.02888489 C4.6087645 -0.02797348 5.82633942 -0.02706207 7.08081055 -0.02612305 C8.3345195 -0.03040817 9.58822845 -0.0346933 10.87992859 -0.03910828 C13.54411686 -0.0448651 16.20791972 -0.04627385 18.87207031 -0.04101562 C21.58285235 -0.03641328 24.29318292 -0.04318162 27.00390625 -0.06152344 C30.9255113 -0.08624498 34.84663665 -0.09016942 38.76831055 -0.08862305 C39.96361893 -0.09783279 41.15892731 -0.10704254 42.39045715 -0.11653137 C55.62649482 -0.04507453 68.87508083 2.20197778 78.9753418 11.3840332 C88.4942665 21.57033639 91.3534529 32.45036092 90.96362305 46.16918945 C90.32162904 57.5838961 85.69387224 67.23581526 77.65893555 75.27075195 C62.10441541 88.54203977 41.82907942 87.59146381 22.6550293 87.2746582 C22.66550293 88.38502441 22.67597656 89.49539063 22.68676758 90.6394043 C22.72290878 94.75053699 22.74590826 98.86165559 22.76489258 102.97290039 C22.77496361 104.75384887 22.78862115 106.53478077 22.8059082 108.31567383 C22.83010842 110.87235603 22.84150114 113.42882005 22.8503418 115.9855957 C22.86066437 116.78460297 22.87098694 117.58361023 22.88162231 118.40682983 C22.88202156 120.3642304 22.77743998 122.32108897 22.6550293 124.2746582 C19.97015765 126.95952985 18.59025949 126.5323527 14.8425293 126.5402832 C13.68495117 126.54286133 12.52737305 126.54543945 11.3347168 126.5480957 C10.12041992 126.54036133 8.90612305 126.53262695 7.6550293 126.5246582 C6.44073242 126.53239258 5.22643555 126.54012695 3.9753418 126.5480957 C2.23897461 126.54422852 2.23897461 126.54422852 0.4675293 126.5402832 C-1.13155273 126.53689941 -1.13155273 126.53689941 -2.76293945 126.53344727 C-5.3449707 126.2746582 -5.3449707 126.2746582 -7.3449707 124.2746582 C-7.59665298 122.12882996 -7.59665298 122.12882996 -7.59893799 119.41601562 C-7.60457764 118.38962982 -7.61021729 117.36324402 -7.61602783 116.30575562 C-7.61197937 115.17529816 -7.60793091 114.0448407 -7.60375977 112.88012695 C-7.6072644 111.69311188 -7.61076904 110.5060968 -7.61437988 109.28311157 C-7.62168849 106.02281445 -7.61995509 102.76267896 -7.61362171 99.50238419 C-7.6085675 96.09468489 -7.61325155 92.68699659 -7.61639404 89.27929688 C-7.62003539 83.55605116 -7.61523021 77.83285703 -7.60571289 72.10961914 C-7.59482799 65.48739711 -7.59835345 58.86529823 -7.6093657 52.24307919 C-7.61843381 46.56321373 -7.6197262 40.8833854 -7.61448836 35.20351505 C-7.61136602 31.80861962 -7.6109665 28.41378212 -7.61756134 25.01889038 C-7.62261684 21.23557095 -7.61492989 17.45249096 -7.60375977 13.66918945 C-7.60780823 12.53873199 -7.61185669 11.40827454 -7.61602783 10.24356079 C-7.61038818 9.21717499 -7.60474854 8.19078918 -7.59893799 7.13330078 C-7.59818394 6.23807205 -7.59742989 5.34284332 -7.59665298 4.42048645 C-7.04345019 -0.29608786 -3.98347725 0.01860061 0 0 Z " fill="#53372F" transform="translate(674.344970703125,657.725341796875)"/>
<path d="M0 0 C9.24 0 18.48 0 28 0 C28 16.17 28 32.34 28 49 C45.16 49 62.32 49 80 49 C79.96039171 33.24815194 79.96039171 33.24815194 79.90991211 17.49633789 C79.9069931 15.53011123 79.90444451 13.56388396 79.90234375 11.59765625 C79.89722778 10.56636597 79.89211182 9.53507568 79.88684082 8.47253418 C79.88665955 7.01091858 79.88665955 7.01091858 79.88647461 5.51977539 C79.884254 4.66928116 79.88203339 3.81878693 79.87974548 2.94252014 C80 1 80 1 81 0 C82.98757028 -0.09983058 84.9786752 -0.13080753 86.96875 -0.1328125 C88.17917969 -0.13410156 89.38960938 -0.13539063 90.63671875 -0.13671875 C91.91160156 -0.13285156 93.18648438 -0.12898437 94.5 -0.125 C96.41232422 -0.13080078 96.41232422 -0.13080078 98.36328125 -0.13671875 C100.17892578 -0.13478516 100.17892578 -0.13478516 102.03125 -0.1328125 C103.15080078 -0.13168457 104.27035156 -0.13055664 105.42382812 -0.12939453 C108 0 108 0 109 1 C109.09817208 2.60457191 109.12631921 4.21347274 109.12698364 5.82104492 C109.13121338 7.38597183 109.13121338 7.38597183 109.13552856 8.98251343 C109.13249222 10.71400131 109.13249222 10.71400131 109.12939453 12.48046875 C109.13202301 14.29244247 109.13202301 14.29244247 109.13470459 16.14102173 C109.13836278 19.46325954 109.13748968 22.78543543 109.1343255 26.10766983 C109.13180152 29.57723324 109.13413955 33.04679392 109.13571167 36.51635742 C109.13753325 42.34391762 109.13512735 48.17146516 109.13037109 53.99902344 C109.12492849 60.74561292 109.12669116 67.49217219 109.1321975 74.23876095 C109.13672895 80.02134174 109.13737902 85.80391341 109.13475883 91.5864954 C109.13319623 95.04451556 109.13300182 98.50252151 109.13629532 101.96054077 C109.13970839 105.81354964 109.13498377 109.66652439 109.12939453 113.51953125 C109.13141876 114.67385651 109.13344299 115.82818176 109.13552856 117.01748657 C109.13270874 118.06077118 109.12988892 119.10405579 109.12698364 120.17895508 C109.1264181 121.54725212 109.1264181 121.54725212 109.12584114 122.94319153 C109 125 109 125 108 126 C106.01242972 126.09983058 104.0213248 126.13080753 102.03125 126.1328125 C100.82082031 126.13410156 99.61039062 126.13539063 98.36328125 126.13671875 C97.08839844 126.13285156 95.81351562 126.12898437 94.5 126.125 C93.22511719 126.12886719 91.95023437 126.13273438 90.63671875 126.13671875 C89.42628906 126.13542969 88.21585937 126.13414062 86.96875 126.1328125 C85.84919922 126.13168457 84.72964844 126.13055664 83.57617188 126.12939453 C81 126 81 126 80 125 C79.90666295 123.40389018 79.88254628 121.80366572 79.88647461 120.20483398 C79.88659546 119.16951538 79.88671631 118.13419678 79.88684082 117.06750488 C79.89195679 115.97143921 79.89707275 114.87537354 79.90234375 113.74609375 C79.90335083 112.74453247 79.90435791 111.74297119 79.90539551 110.71105957 C79.91064571 106.95319481 79.92460683 103.19534631 79.9375 99.4375 C79.958125 91.043125 79.97875 82.64875 80 74 C63.17 74 46.34 74 29 74 C29.07918281 90.36505593 29.07918281 90.36505593 29.18017578 106.72998047 C29.18601487 108.77571403 29.19111181 110.82144991 29.1953125 112.8671875 C29.2106604 114.47122437 29.2106604 114.47122437 29.22631836 116.10766602 C29.22656006 117.12256104 29.22680176 118.13745605 29.22705078 119.18310547 C29.231492 120.06690887 29.23593323 120.95071228 29.24050903 121.86129761 C29 124 29 124 27 126 C24.40209961 126.24291992 24.40209961 126.24291992 21.15234375 126.23046875 C19.99025391 126.22853516 18.82816406 126.22660156 17.63085938 126.22460938 C16.41205078 126.21236328 15.19324219 126.20011719 13.9375 126.1875 C12.10348633 126.1865332 12.10348633 126.1865332 10.23242188 126.18554688 C1.14011056 126.14011056 1.14011056 126.14011056 0 125 C-0.09603022 123.3804366 -0.12187855 121.75666917 -0.12025452 120.13426208 C-0.12162918 119.08111816 -0.12300385 118.02797424 -0.12442017 116.94291687 C-0.12082489 115.77766983 -0.11722961 114.61242279 -0.11352539 113.41186523 C-0.11367142 112.19252289 -0.11381744 110.97318054 -0.1139679 109.71688843 C-0.11338893 106.36372489 -0.10835968 103.01062226 -0.10139394 99.65746951 C-0.09515983 96.15674438 -0.09455656 92.65601852 -0.09336853 89.1552887 C-0.09025538 82.52190344 -0.08204222 75.88853459 -0.07201904 69.25515658 C-0.06085739 61.70509793 -0.05534732 54.15503851 -0.05032361 46.60497367 C-0.03985959 31.06997132 -0.02151432 15.53499157 0 0 Z " fill="#52362F" transform="translate(381,658)"/>
<path d="M0 0 C1.14065918 0.00612305 2.28131836 0.01224609 3.45654297 0.01855469 C15.13351548 0.23341759 27.45740258 1.75830174 37.375 8.4375 C39.30542444 13.22315686 37.48167903 17.51390603 36 22.1875 C35.76539063 22.96738281 35.53078125 23.74726562 35.2890625 24.55078125 C33.53671288 30.27578712 33.53671288 30.27578712 32.375 31.4375 C27.96818775 31.04343996 24.08301679 30.08124638 19.93286133 28.5703125 C13.32272475 26.19243338 7.22621136 24.95053181 0.1875 24.9375 C-0.51874512 24.93161865 -1.22499023 24.9257373 -1.95263672 24.91967773 C-6.31426282 25.02522636 -9.13896389 25.80996532 -12.625 28.4375 C-15.19132517 31.85926689 -14.98935051 35.28390421 -14.625 39.4375 C-12.60896195 44.72959989 -8.40550643 46.86662543 -3.625 49.4375 C1.93564292 51.89891544 7.61879949 54.05051238 13.2890625 56.24414062 C25.88494319 61.22177285 37.66205222 66.76333755 43.6484375 79.54296875 C47.42862158 89.39990037 46.03984005 100.04266519 41.9140625 109.52734375 C36.64439712 119.49155875 28.20056214 124.81099489 17.875 128.8125 C-1.68669903 134.32871371 -24.75801415 131.22888507 -42.5 121.70703125 C-44.625 120.4375 -44.625 120.4375 -45.625 119.4375 C-45.3825049 112.04139952 -43.66933306 104.72868476 -39.625 98.4375 C-36.26628782 96.89686049 -34.71739706 97.40656019 -31.20703125 98.58203125 C-29.94633008 99.12845178 -28.68994538 99.68491292 -27.4375 100.25 C-15.42891595 105.32814835 -3.18230741 107.74721198 9.53515625 103.484375 C11.93220572 102.12044876 12.99017872 100.82223755 14.375 98.4375 C15.26998248 94.14417827 15.53307646 89.58622017 13.40234375 85.6328125 C6.74520326 79.06443388 -4.62426579 76.25053675 -13.234375 73.12890625 C-24.90687113 68.87039989 -35.94350927 63.34069219 -41.9375 51.94140625 C-45.6586863 43.03898486 -46.02734278 33.87722912 -43.0625 24.6875 C-38.89963378 14.74287513 -32.34786988 8.11125813 -22.625 3.4375 C-15.10505773 0.46779208 -8.03097426 -0.07340711 0 0 Z " fill="#53372F" transform="translate(309.625,655.5625)"/>
<path d="M0 0 C7.54848308 6.07726449 13.7365073 15.4902788 15.35546875 25.22265625 C16.40890495 38.31536336 14.82463124 51.07817194 6.08203125 61.546875 C-2.98146778 70.34380053 -13.24213796 73.22265625 -25.64453125 73.22265625 C-36.16550552 72.27562059 -44.39579215 67.82916573 -51.64453125 60.22265625 C-59.81206105 50.0449831 -60.71539762 38.0517783 -59.90332031 25.45947266 C-58.85038784 16.3585601 -53.59622263 7.33190486 -46.578125 1.5078125 C-32.99141159 -8.15647582 -14.07733944 -9.46113655 0 0 Z " fill="#F0856E" transform="translate(601.64453125,687.77734375)"/>
<path d="M0 0 C3.444375 -0.061875 6.88875 -0.12375 10.4375 -0.1875 C11.50411865 -0.21481201 12.5707373 -0.24212402 13.66967773 -0.27026367 C21.2387359 -0.3353874 27.8479899 0.46468753 33.875 5.3125 C39.14392737 11.97614344 39.9760118 17.64358439 39 26 C37.6953202 30.55532268 35.83068683 33.28258865 32.25 36.375 C24.91142163 40.04428919 18.04153299 40.26805624 10 40.125 C6.7 40.08375 3.4 40.0425 0 40 C0 26.8 0 13.6 0 0 Z " fill="#F0856E" transform="translate(697,681)"/>
<path d="M0 0 C0.33 0 0.66 0 1 0 C1 8.58 1 17.16 1 26 C3.06562195 25.92894547 5.1312439 25.85789093 7.25946045 25.78468323 C31.45089835 24.99011041 55.62169124 24.86464446 79.8244257 24.89860606 C85.16539942 24.90498663 90.50637413 24.90545473 95.84735107 24.90663147 C105.89720907 24.90970247 115.9470558 24.91785691 125.9969089 24.92798096 C137.46548047 24.93927594 148.93405265 24.94468578 160.40262842 24.94967639 C183.93509201 24.96004463 207.46754488 24.97776799 231 25 C231 20.05 231 15.1 231 10 C233 12 233 12 233 27 C156.11 27 79.22 27 0 27 C0 18.09 0 9.18 0 0 Z " fill="#EEE9D7" transform="translate(396,214)"/>
<path d="M0 0 C0 0.99 0 1.98 0 3 C-1.32560723 3.87211002 -2.65768456 4.73521419 -4.01171875 5.5625 C-8.48337961 8.79544931 -12.16863726 13.04993756 -16 17 C-16.99783316 18.00216215 -17.99673738 19.0032733 -19 20 C-17.92557515 13.47986017 -12.24436622 8.744557 -7.24609375 4.859375 C-4.85928219 3.18894643 -2.45661027 1.56558565 0 0 Z " fill="#4B322B" transform="translate(543,665)"/>
<path d="M0 0 C0.66 0.33 1.32 0.66 2 1 C1.33333333 2.33333333 0.66666667 3.66666667 0 5 C-0.28875 5.70125 -0.5775 6.4025 -0.875 7.125 C-2.25218936 9.42031559 -3.55198504 10.02079402 -6 11 C-5.39305845 7.84669446 -4.3583335 5.81111133 -2.4375 3.25 C-1.98246094 2.63640625 -1.52742188 2.0228125 -1.05859375 1.390625 C-0.70925781 0.93171875 -0.35992187 0.4728125 0 0 Z " fill="#46302A" transform="translate(275,667)"/>
<path d="M0 0 C1.51171875 1.23046875 1.51171875 1.23046875 3 3 C3.35982744 8.10565957 1.8156648 13.27927152 0 18 C-1.09965683 14.70102951 -0.82988992 14.18219858 0 11 C0.06688591 9.08438746 0.08531719 7.16664408 0.0625 5.25 C0.05347656 4.26515625 0.04445313 3.2803125 0.03515625 2.265625 C0.02355469 1.51796875 0.01195312 0.7703125 0 0 Z " fill="#412D27" transform="translate(568,365)"/>
<path d="M0 0 C0.33 1.32 0.66 2.64 1 4 C-0.8125 6.75 -0.8125 6.75 -3 9 C-3.66 9 -4.32 9 -5 9 C-5.33 9.99 -5.66 10.98 -6 12 C-6.33 11.34 -6.66 10.68 -7 10 C-3.535 5.05 -3.535 5.05 0 0 Z " fill="#452620" transform="translate(393,143)"/>
<path d="M0 0 C0.33 0.66 0.66 1.32 1 2 C-0.70135776 5.23257974 -2.76039553 8.12050853 -5 11 C-5.66 10.67 -6.32 10.34 -7 10 C-3.535 5.05 -3.535 5.05 0 0 Z " fill="#402E28" transform="translate(613,740)"/>
<path d="M0 0 C0 0.99 0 1.98 0 3 C-2.8125 5.0625 -2.8125 5.0625 -6 7 C-6.99 7.66 -7.98 8.32 -9 9 C-7.48328036 4.44984107 -3.83108947 2.49942736 0 0 Z " fill="#3F2C26" transform="translate(543,665)"/>
</svg>
